<svg xmlns="http://www.w3.org/2000/svg" viewBox="0 0 327.87 58.13"><defs><style>.cls-1{fill:#ffc73a;}.cls-2{fill:#97a1a5;}</style></defs><title>logo</title><g id="Capa_2" data-name="Capa 2"><g id="Capa_1-2" data-name="Capa 1"><path class="cls-1" d="M148.51,58a16.8,16.8,0,0,1-8.31-2,13.21,13.21,0,0,1-5.35-5.53,17.88,17.88,0,0,1-1.87-8.4,17.73,17.73,0,0,1,1.87-8.37,13.22,13.22,0,0,1,5.35-5.51,16.8,16.8,0,0,1,8.31-1.95,17.74,17.74,0,0,1,5.77.88,11.28,11.28,0,0,1,4.34,2.58l-2.06,5.38a13.76,13.76,0,0,0-3.75-2.23,11.45,11.45,0,0,0-4-.66,8.21,8.21,0,0,0-6.52,2.58Q140,37.36,140,42.08a13.22,13.22,0,0,0,1,5.38,7.15,7.15,0,0,0,3,3.39A9.43,9.43,0,0,0,148.77,52a11.45,11.45,0,0,0,4-.66,13.76,13.76,0,0,0,3.75-2.23l2.06,5.38a11.9,11.9,0,0,1-4.34,2.56A17.47,17.47,0,0,1,148.51,58Z"/><path class="cls-1" d="M233.14,52.43h0A4.82,4.82,0,0,1,238,47.61h.18A4.82,4.82,0,0,1,243,52.43h0a4.82,4.82,0,0,1-4.82,4.82H238A4.82,4.82,0,0,1,233.14,52.43Z"/><polygon class="cls-1" points="327.87 57.25 315.06 41.51 326.96 26.76 316.36 26.76 309.82 35.22 303.28 26.76 292.55 26.76 304.66 41.52 291.77 57.25 302.44 57.25 309.81 47.87 317.08 57.25 327.87 57.25"/><path class="cls-1" d="M206.26,33.71a9.2,9.2,0,0,1,1.54-3.45,9.89,9.89,0,0,1,2-2.06l0-1.62a5.65,5.65,0,0,0-1.35-.4,14.72,14.72,0,0,0-1.9-.09,9.93,9.93,0,0,0-4.55,1,8.7,8.7,0,0,0-3.38,3.13,12.43,12.43,0,0,0-.94,1.82L197,26.76h-8.8a36.07,36.07,0,0,1,.39,4c.06,1.37.09,2.74.09,4.1V57.25h9.22V42a12.24,12.24,0,0,1,.75-4.49,5.54,5.54,0,0,1,2.48-2.86,8.58,8.58,0,0,1,4.24-1Z"/><path class="cls-1" d="M218.68,57.85a29.06,29.06,0,0,1-7.44-.9,18.49,18.49,0,0,1-5.7-2.47l2.29-6a19.27,19.27,0,0,0,5.22,2.32,20.39,20.39,0,0,0,5.69.82,6.91,6.91,0,0,0,3.95-.88,2.7,2.7,0,0,0,1.23-2.32,2.25,2.25,0,0,0-.81-1.78,5.73,5.73,0,0,0-2.5-1l-6.27-1.15a10.67,10.67,0,0,1-5.9-2.83,7.5,7.5,0,0,1-2.05-5.48A8.77,8.77,0,0,1,208,30.86a10.46,10.46,0,0,1,4.61-3.5,18.18,18.18,0,0,1,7-1.27,24.6,24.6,0,0,1,6.51.85,13.7,13.7,0,0,1,5.25,2.65l-2.47,5.79a14.23,14.23,0,0,0-4.31-2.2,15,15,0,0,0-4.67-.82,7.28,7.28,0,0,0-4.13.91,2.73,2.73,0,0,0-1.3,2.35,2.36,2.36,0,0,0,.76,1.8,4.85,4.85,0,0,0,2.38,1.09l6.2,1.08A11.72,11.72,0,0,1,230,42.34a7.24,7.24,0,0,1,2.11,5.51,8.57,8.57,0,0,1-1.72,5.42,10.64,10.64,0,0,1-4.73,3.41A19.25,19.25,0,0,1,218.68,57.85Z"/><path class="cls-1" d="M178.74,26.78l-.52,4.58h0a8.67,8.67,0,0,0-3.07-3.43A10.7,10.7,0,0,0,169,26.12a11.15,11.15,0,0,0-6.46,1.9,12.39,12.39,0,0,0-4.35,5.45A21,21,0,0,0,156.66,42a21.84,21.84,0,0,0,1.53,8.55A11.94,11.94,0,0,0,162.54,56,11.49,11.49,0,0,0,169,57.85a11,11,0,0,0,6-1.71A8.52,8.52,0,0,0,178,53.07l0,4.18h8.36V34.67c0-1.32,0-2.65.12-4s.18-2.63.33-3.92Zm-2.46,22.07a6.11,6.11,0,0,1-9.39,0q-1.75-2.19-1.76-6.89c0-3.09.6-5.37,1.78-6.84a6.09,6.09,0,0,1,9.37,0q1.78,2.21,1.79,6.84T176.28,48.85Z"/><path class="cls-1" d="M289.39,29.2q-2.55-3.11-7.74-3.11a12.08,12.08,0,0,0-6.51,1.81,10.86,10.86,0,0,0-3.7,3.86,8.27,8.27,0,0,0-3-4,10.07,10.07,0,0,0-5.84-1.66,11.37,11.37,0,0,0-6.21,1.69,9.93,9.93,0,0,0-3.32,3.47h0l-.53-4.49h-8.8a36,36,0,0,1,.4,3.91c.06,1.33.09,2.66.09,4v22.6h9.1V40.38a8.26,8.26,0,0,1,1.56-5.28,5.26,5.26,0,0,1,4.34-2,3.82,3.82,0,0,1,3.23,1.38c.7.93,1.05,2.47,1.05,4.64V57.25h9.1V40.38a8.2,8.2,0,0,1,1.57-5.28,5.19,5.19,0,0,1,4.28-2,3.94,3.94,0,0,1,3.34,1.38,7.85,7.85,0,0,1,1.06,4.64V57.25H292V38.81Q292,32.3,289.39,29.2Z"/><path class="cls-1" d="M79.77,22.23c-3.63,0-7.17,0-10.7,0a.49.49,0,0,1-.52-.38q-1.72-4-3.46-8c-.07-.17-.16-.34-.25-.52-.25.08-.25.32-.32.49q-1.59,4-3.17,8a.58.58,0,0,1-.62.43q-5.22,0-10.44,0c-.4,0-.43-.08-.28-.44q4.4-10.29,8.76-20.6a.73.73,0,0,1,.8-.51c3.39,0,6.77,0,10.16,0a.68.68,0,0,1,.74.49q3.32,7.56,6.67,15.1C78,18.23,78.87,20.19,79.77,22.23Z"/><path class="cls-2" d="M83,29.36c-.37-.79-.72-1.57-1.06-2.36-.12-.26-.21-.44-.56-.44q-5.16,0-10.32,0c-.34,0-.39.08-.25.39.82,1.87,1.62,3.74,2.43,5.61.42,1,.83,1.92,1.27,2.92H55.9c.06-.19.1-.35.16-.5,1-2.65,2.1-5.29,3.18-7.93.15-.37.13-.49-.31-.49q-5.26,0-10.55,0a.53.53,0,0,0-.57.4L34.55,58.12c.35,0,8.32,0,12,0a.72.72,0,0,0,.81-.56c1.63-4.37,3.27-8.72,4.91-13.08A.63.63,0,0,1,53,44q12.31,0,24.62,0a.69.69,0,0,1,.73.45c1.85,4,3.72,8.08,5.56,12.13a.9.9,0,0,0,1,.63H95.35Z"/><path class="cls-1" d="M35.23,16.83a4.29,4.29,0,0,0-3.95-3.95c-3.41.16-6.84.09-10.26,0a6.33,6.33,0,0,0-2.63.23,4,4,0,0,0-2.44,3q-.06,7.4-.1,14.79c0,1,.28,1.3,1.22,1.31,2.78,0,13.86.13,16.62.12,1,0,1.36-.34,1.39-1.36,0-.77,0-1.54,0-2.32C35.11,24.72,35.06,20.77,35.23,16.83Zm-4.07,4.39c0,.85-.23,1.06-1.09,1.07-1.53,0-7.65-.06-9.18-.06-.72,0-1-.21-1-.93-.09-1.47,0-2.94,0-4.41,0-.5.36-.72.84-.72l9.3,0c.89,0,1.13.23,1.13,1.09C31.19,18.61,31.18,19.92,31.16,21.22Z"/><path class="cls-1" d="M30.41,34.32c.1-.74,0-.86-.78-.87l-8.79,0c-.28,0-.41.09-.39.39a17.57,17.57,0,0,1,0,1.92A2.55,2.55,0,0,0,21,37.55a2.26,2.26,0,0,1,.53,1.67c0,4.83-.06,9.66-.1,14.49,0,1.58.44,2.23,1.72,2.52.27.06.38,0,.37-.27,0-.57,0-1.13,0-1.7,0-4.1.1-14.48.13-15.57,0-.48.29-.65.75-.62s.67.11.66.66c0,2.88-.15,14.47-.15,17.38a1.14,1.14,0,0,0,.57,1.19A1.26,1.26,0,0,0,27,57.22,7.25,7.25,0,0,1,28,56.54a2.23,2.23,0,0,0,1.22-2.18c0-2.43.06-12.59.07-15.23a2,2,0,0,1,.51-1.45,2.85,2.85,0,0,0,.56-1.16A13.45,13.45,0,0,0,30.41,34.32Z"/><path class="cls-1" d="M41,15.38,44.1,8A25.53,25.53,0,1,0,7.33,43.44a4.36,4.36,0,0,0,6.19.05l-.26.24a3,3,0,0,0,.09-4.31A18.47,18.47,0,1,1,41,15.38Z"/><path class="cls-2" d="M129.75,41.47a14.32,14.32,0,0,0-7-12.23,17.9,17.9,0,0,0-5.72-2.3c0-.18.18-.17.28-.2a10.84,10.84,0,0,0,6-5,15.14,15.14,0,0,0,1.61-9.11,11.38,11.38,0,0,0-4.48-8.32A17.48,17.48,0,0,0,109.78.72C102,.62,94.27.7,86.52.68c-.46,0-.59.13-.62.45V30.81L97.51,57.2h0q9.31,0,18.63,0a8.7,8.7,0,0,0,2.73-.42A15.34,15.34,0,0,0,129.75,41.47ZM98,9.5c2.93,0,5.85,0,8.78,0a7.39,7.39,0,0,1,2.9,14.12,7.78,7.78,0,0,1-3.19.68c-2.83,0-5.67,0-8.5,0-.43,0-.53-.12-.52-.53,0-2.3,0-4.61,0-6.91s0-4.57,0-6.85C97.44,9.59,97.56,9.49,98,9.5Zm20.35,32.4a8,8,0,0,1-6.67,7c-.54.08-9.65.1-13.66.12-.44,0-.56-.11-.55-.55,0-2.46,0-4.91,0-7.37s0-4.94,0-7.42c0-.41.08-.54.52-.54,4.16,0,8.32,0,12.48,0A7.93,7.93,0,0,1,118.33,41.9Z"/></g></g></svg>